<?xml version="1.0" standalone="no"?>
<!DOCTYPE svg PUBLIC "-//W3C//DTD SVG 20010904//EN"
 "http://www.w3.org/TR/2001/REC-SVG-20010904/DTD/svg10.dtd">
<svg version="1.0" xmlns="http://www.w3.org/2000/svg"
 width="512.000000pt" height="512.000000pt" viewBox="0 0 512.000000 512.000000"
 preserveAspectRatio="xMidYMid meet">
<metadata>
Created by potrace 1.11, written by Peter Selinger 2001-2013
</metadata>
<g transform="translate(0.000000,512.000000) scale(0.100000,-0.100000)"
fill="#000000" stroke="none">
<path d="M2127 4854 c-1 -1 -103 -4 -227 -8 -124 -3 -247 -8 -275 -10 -27 -3
-95 -7 -150 -11 -55 -3 -116 -8 -135 -10 -19 -2 -71 -6 -114 -10 -44 -4 -87
-8 -95 -10 -9 -1 -47 -6 -86 -9 -137 -13 -399 -60 -575 -103 -240 -58 -429
-156 -461 -240 -13 -35 -12 -655 2 -690 34 -89 238 -206 479 -273 47 -13 87
-25 89 -27 3 -2 -6 -18 -20 -36 l-24 -32 -3 -339 c-2 -225 1 -343 8 -350 18
-18 11 -23 -63 -41 -92 -22 -257 -80 -316 -110 -64 -32 -123 -81 -143 -118
-15 -28 -17 -70 -18 -355 0 -368 -1 -364 79 -432 25 -22 90 -62 144 -89 55
-28 93 -52 86 -56 -6 -4 -19 -24 -28 -45 -14 -32 -16 -79 -16 -361 1 -299 2
-326 20 -354 51 -81 159 -147 360 -220 93 -34 338 -100 449 -121 12 -2 44 -8
71 -13 28 -6 68 -13 90 -16 22 -3 51 -8 65 -10 65 -11 333 -45 400 -50 41 -4
98 -9 125 -11 28 -2 75 -6 105 -9 96 -9 378 -18 565 -19 187 -1 611 11 655 18
14 2 61 7 105 11 44 3 107 8 140 11 48 4 237 28 385 49 318 46 655 137 834
226 130 65 198 124 214 184 5 17 8 172 7 345 -1 348 -2 350 -66 404 -39 33
-122 75 -206 106 l-63 23 30 33 c16 19 32 44 35 57 3 12 4 168 3 347 l-3 325
95 32 c198 66 297 116 382 191 56 51 58 62 58 410 0 177 -4 332 -9 345 -24 63
-152 144 -306 196 -83 28 -245 70 -277 73 -29 2 -27 13 8 40 51 41 54 61 54
410 0 317 -1 324 -23 359 -31 51 -72 83 -160 124 -176 83 -520 163 -847 199
-79 9 -153 16 -210 22 -30 3 -71 7 -90 9 -19 3 -80 7 -135 10 -55 3 -131 8
-170 10 -180 12 -819 26 -828 19z"/>
</g>
</svg>
